HIERARCHY
ROOT Hips
{
     OFFSET -37.98070 93.99780 -82.41100
     CHANNELS 6 Xposition Yposition Zposition Zrotation Xrotation Yrotation
     JOINT Spine
     {
          OFFSET -0.00000 11.89050 -0.00000
          CHANNELS 3 Zrotation Xrotation Yrotation
          JOINT Spine1
          {
               OFFSET 0.00000 25.65740 0.12766
               CHANNELS 3 Zrotation Xrotation Yrotation
               JOINT HEad
               {
                    OFFSET 0.00000 8.73416 0.01134
                    CHANNELS 3 Zrotation Xrotation Yrotation
                    End Site
                    {
                         OFFSET -0.29000 12.77420 2.51395
                    }
               }
               JOINT LeftShoulder1
               {
                    OFFSET 8.99000 -0.36225 -0.22000
                    CHANNELS 3 Zrotation Xrotation Yrotation
                    JOINT LeftArm
                    {
                         OFFSET 10.28270 -0.00338 0.32212
                         CHANNELS 3 Zrotation Xrotation Yrotation
                         JOINT LeftForeArm
                         {
                              OFFSET 32.76690 0.09914 -1.42434
                              CHANNELS 3 Zrotation Xrotation Yrotation
                              JOINT LeftHand
                              {
                                   OFFSET 27.56430 0.08536 1.02216
                                   CHANNELS 3 Zrotation Xrotation Yrotation
                                   End Site
                                   {
                                        OFFSET 16.74430 -0.60000 1.50291
                                   }
                              }
                         }
                    }
               }
               JOINT RightShoulder
               {
                    OFFSET -8.99000 -0.36225 -0.22000
                    CHANNELS 3 Zrotation Xrotation Yrotation
                    JOINT RightArm
                    {
                         OFFSET -10.28270 -0.00338 0.32212
                         CHANNELS 3 Zrotation Xrotation Yrotation
                         JOINT RightForeArm
                         {
                              OFFSET -32.89710 0.09914 -1.42434
                              CHANNELS 3 Zrotation Xrotation Yrotation
                              JOINT RightHand
                              {
                                   OFFSET -27.49210 0.08536 1.02216
                                   CHANNELS 3 Zrotation Xrotation Yrotation
                                   End Site
                                   {
                                        OFFSET -16.63120 -0.60000 1.50291
                                   }
                              }
                         }
                    }
               }
          }
     }
     JOINT LeftUpLeg
     {
          OFFSET 8.94580 -8.66707 0.10165
          CHANNELS 3 Zrotation Xrotation Yrotation
          JOINT LeftLeg
          {
               OFFSET -0.00000 -44.42270 1.37270
               CHANNELS 3 Zrotation Xrotation Yrotation
               JOINT LeftFoot
               {
                    OFFSET -0.25355 -42.09240 -1.46059
                    CHANNELS 3 Zrotation Xrotation Yrotation
                    JOINT LeftToes
                    {
                         OFFSET -0.04000 -4.41509 8.49910
                         CHANNELS 3 Zrotation Xrotation Yrotation
                         End Site
                         {
                              OFFSET 0.08000 -0.04745 9.77979
                         }
                    }
               }
          }
     }
     JOINT RightUpLeg
     {
          OFFSET -8.94580 -8.66707 0.10165
          CHANNELS 3 Zrotation Xrotation Yrotation
          JOINT RightLeg
          {
               OFFSET 0.00000 -44.42270 1.37270
               CHANNELS 3 Zrotation Xrotation Yrotation
               JOINT RightFoot
               {
                    OFFSET 0.25355 -42.09240 -1.46059
                    CHANNELS 3 Zrotation Xrotation Yrotation
                    JOINT RightToes
                    {
                         OFFSET 0.04000 -4.41509 8.49910
                         CHANNELS 3 Zrotation Xrotation Yrotation
                         End Site
                         {
                              OFFSET -0.08000 -0.13745 9.77979
                         }
                    }
               }
          }
     }
}
MOTION
Frames: 12
Frame Time: 0.01667
-4.32344 95.32670 29.56980 15.04030 -14.49200 57.06080 -2.64848 14.64200 1.02171 -1.78656 29.08780 1.55491 -4.36651 5.14182 5.65382 -0.00000 -0.00000 0.00000 -134.42799 -58.56090 -104.86000 -88.43420 53.02260 -33.02740 13.79010 6.71350 -23.23320 10.22220 1.20281 6.16255 83.44820 -7.62993 78.01350 6.36376 30.13730 94.32810 10.40980 11.67960 14.08930 21.60310 -0.22648 -18.73610 -31.63760 7.26204 65.05330 -5.48127 15.56770 0.99742 3.19838 -25.80630 -71.84660 -30.17840 16.90090 19.49970 42.00060 8.68483 -32.99710 -21.24470 11.70850 3.57535 0.04620 0.00053 0.66264 
-4.65799 94.81390 29.35540 15.90400 -14.74570 56.37590 -3.31605 14.90340 1.17220 -1.41277 29.52360 1.35075 -5.08110 4.57456 6.19706 -0.00000 -0.00000 0.00000 -134.85201 -59.25600 -104.82800 -88.82040 52.38510 -32.52850 13.59460 6.79232 -22.97560 10.35120 1.22690 6.27315 82.38880 -5.77121 79.26560 5.01544 28.53400 92.64250 10.75340 11.71700 13.91480 22.04700 -2.05344 -17.47520 -34.03740 11.53280 67.04970 -5.71713 17.79480 1.14253 2.08565 -27.85640 -73.65700 -31.05560 17.68910 20.46660 41.85480 8.07376 -32.14320 -22.84320 11.25970 3.76214 0.04620 0.00053 0.66264 
-4.75449 94.26830 29.05030 16.68720 -15.13790 55.51150 -3.99790 15.15200 1.25394 -1.08784 29.98160 1.14333 -5.71384 4.06064 6.90517 -0.00000 -0.00000 0.00000 -135.90900 -60.18890 -105.01900 -89.95220 52.12160 -31.92300 13.30040 6.92951 -22.41080 10.42770 1.25622 6.44845 81.11030 -3.92031 80.31510 3.81173 26.77950 90.45110 11.65330 11.78790 13.25250 22.47610 -3.86052 -15.65650 -36.15300 16.43150 68.35370 -6.30932 19.43280 1.35411 1.40303 -29.00790 -74.81260 -31.90530 18.19890 21.28110 41.72510 7.98939 -31.40530 -24.12220 10.57330 3.83192 0.04620 0.00053 0.66264 
-4.66410 93.85640 28.64490 17.24470 -15.62740 54.31000 -4.66288 15.37590 1.33102 -0.82855 30.40530 0.90973 -6.25922 3.60996 7.78789 -0.00000 -0.00000 0.00000 -137.85600 -61.52550 -105.74300 -91.92990 52.52200 -31.31600 12.87360 7.14163 -21.42100 10.43250 1.28268 6.64038 79.83100 -2.16271 81.05550 2.89259 25.19570 88.18250 13.00320 11.86930 12.21040 23.02410 -5.13003 -13.80480 -37.70520 20.51310 69.23830 -6.76462 20.39970 1.51297 1.20064 -29.31950 -75.25570 -32.67140 18.46400 21.99250 41.45200 7.88852 -30.58060 -25.18300 10.07000 3.89359 0.04620 0.00053 0.66264 
-4.34837 93.61440 28.14270 17.42510 -16.16720 52.70880 -5.22597 15.54240 1.37062 -0.65129 30.72610 0.63155 -6.73175 3.20296 8.86056 -0.00000 -0.00000 0.00000 -140.69099 -63.31750 -107.22900 -94.59110 53.74800 -30.95480 12.25090 7.44255 -19.91440 10.37840 1.29702 6.77611 78.73840 -0.53772 81.40520 2.31340 24.06840 86.32030 14.52130 11.93250 11.04200 23.67660 -5.89985 -12.35210 -38.63300 23.42790 70.01860 -7.07692 20.46760 1.59316 1.37357 -29.02120 -75.08810 -33.26990 18.39300 22.63630 40.96910 7.66319 -29.55410 -25.91430 9.88124 3.96802 0.04620 0.00053 0.66264 
-3.78812 93.56240 27.55140 17.12090 -16.69180 50.66810 -5.62632 15.63380 1.34421 -0.57036 30.89930 0.29680 -7.17154 2.79500 10.15710 -0.00000 -0.00000 0.00000 -144.02400 -65.47000 -109.47400 -97.40820 55.76150 -31.28040 11.32620 7.83716 -17.86930 10.28630 1.28947 6.77222 77.94050 0.96759 81.33230 2.05262 23.57680 85.24420 15.84470 11.97020 10.07370 24.43540 -6.21318 -11.68760 -39.00070 24.84170 70.96080 -7.23478 19.65060 1.58505 1.78670 -28.33130 -74.43670 -33.66870 17.95310 23.26890 40.23660 7.16192 -28.15560 -26.21750 10.12350 4.07435 0.04620 0.00053 0.66264 
-2.98125 93.69890 26.87660 16.29120 -17.14320 48.17270 -5.82374 15.64960 1.23417 -0.59123 30.91940 -0.09390 -7.63707 2.32266 11.73540 -0.00000 -0.00000 0.00000 -147.03500 -67.79130 -112.10000 -99.47870 58.31060 -32.90150 9.97079 8.30743 -15.39100 10.15830 1.25185 6.56359 77.44530 2.39834 80.86920 2.05063 23.74520 85.11990 16.67000 11.99620 9.55870 25.30170 -6.08402 -12.07030 -38.89290 24.53190 72.12620 -7.27682 18.17690 1.51025 2.39369 -27.29410 -73.28700 -33.89190 17.19490 23.92250 39.24540 6.19950 -26.19880 -26.02300 10.89630 4.22473 0.04620 0.00053 0.66264 
-1.94058 93.99490 26.12040 14.95990 -17.48530 45.21420 -5.81216 15.60230 1.04695 -0.71102 30.81790 -0.51723 -8.18428 1.71003 13.66860 -0.00000 -0.00000 0.00000 -148.76100 -70.09490 -114.49400 -99.78350 60.94100 -36.33580 8.11789 8.80051 -12.74870 9.96773 1.18112 6.13458 77.17430 3.80444 80.11170 2.24257 24.43510 85.88540 16.86140 12.01880 9.55384 26.25360 -5.50438 -13.56720 -38.32040 22.49510 73.31250 -7.30748 16.40840 1.41517 3.22836 -25.77850 -71.44860 -34.01740 16.25180 24.58910 38.02170 4.53807 -23.53770 -25.30590 12.29840 4.42432 0.04620 0.00053 0.66264 
-0.71201 94.35990 25.29910 13.25440 -17.65330 41.76660 -5.79519 15.51590 0.86896 -0.97275 30.65150 -0.92309 -8.83872 0.87818 16.02550 -0.00000 -0.00000 0.00000 -149.08299 -72.25030 -116.67000 -97.90980 63.03910 -41.34500 5.88831 9.24000 -10.36360 9.67204 1.08355 5.54038 77.00410 5.21138 79.20180 2.56790 25.39980 87.31600 16.48540 12.02700 9.91310 27.20020 -4.48879 -16.03860 -37.27290 19.01440 74.21320 -7.46007 14.72930 1.34833 4.28609 -23.63710 -68.69770 -33.89240 14.51170 24.88400 36.73200 3.62840 -20.53480 -23.76110 13.60460 4.42474 0.04620 0.00053 0.66264 
0.62403 94.67210 24.44290 11.31930 -17.60750 37.83900 -6.02720 15.39160 0.77833 -1.36045 30.45050 -1.24692 -9.57071 -0.23090 18.84520 -0.00000 -0.00000 0.00000 -150.04300 -74.13460 -120.56900 -94.82920 64.03470 -46.26090 3.65157 9.56603 -8.73834 9.24805 0.97690 4.90941 76.81970 6.58783 78.29430 2.97426 26.38430 89.11920 15.76410 12.00550 10.38870 28.11350 -3.13437 -19.21540 -35.82770 14.61190 74.60260 -7.84100 13.41630 1.34115 5.44079 -20.85640 -64.95220 -33.67930 12.28770 24.82270 35.36480 2.93222 -17.16710 -21.57490 15.00220 4.27795 0.04620 0.00053 0.66264 
2.23016 94.88120 23.50430 9.08429 -17.50540 33.58630 -6.03633 15.21180 0.56908 -1.86066 30.21740 -1.43596 -10.28670 -1.61980 22.11640 -0.00000 -0.00000 0.00000 -155.42999 -75.44360 -129.78400 -92.20240 63.69300 -48.76610 1.91752 9.76611 -8.30269 8.72599 0.88657 4.41758 76.55320 7.82657 77.51560 3.42338 27.21710 91.01830 14.97460 11.95430 10.75740 28.76070 -2.72013 -22.43170 -34.51580 12.41050 74.51120 -9.65139 11.83890 1.55153 6.49011 -17.56810 -60.35640 -33.31930 9.97747 24.35440 33.98040 2.03214 -13.61500 -18.83840 16.55950 3.98893 0.04620 0.00053 0.66264 
3.88652 95.01460 22.52650 6.81411 -17.24520 29.07230 -6.20814 14.99250 0.40641 -2.51535 29.94540 -1.47901 -10.84940 -3.20960 25.75950 -0.00000 -0.00000 0.00000 -166.23599 -75.44210 -145.22900 -90.32900 62.10030 -47.97680 1.09073 9.85339 -9.17664 8.18834 0.83538 4.23089 76.19890 8.77259 76.93610 3.88902 27.84120 92.80390 14.34260 11.88940 10.89730 28.99100 -2.67680 -25.55450 -33.12910 11.61810 73.97180 -12.27670 10.30530 1.84556 7.25927 -14.00790 -55.32300 -32.93090 7.62023 23.40910 32.71240 0.93001 -10.29310 -15.89820 18.25490 3.60264 0.04620 0.00053 0.66264 
